<svg xmlns="http://www.w3.org/2000/svg" xmlns:xlink="http://www.w3.org/1999/xlink" width="247" height="216" viewBox="0 0 247 216">
  <defs>
    <clipPath id="clip-Artboard_2">
      <rect width="247" height="216"/>
    </clipPath>
  </defs>
  <g id="Artboard_2" data-name="Artboard – 2" clip-path="url(#clip-Artboard_2)">
    <rect width="247" height="216" fill="#fff"/>
    <g id="stock-market" transform="translate(11.639 0.532)">
      <path id="Path_687" data-name="Path 687" d="M220.58,218.31H203.524V142.857a8.193,8.193,0,0,0-8.189-8.175h-19.2a8.185,8.185,0,0,0-8.175,8.175V218.31H154.393v-45.8a8.189,8.189,0,0,0-8.184-8.175H127a8.19,8.19,0,0,0-8.189,8.175v45.8H105.252V142.857a8.185,8.185,0,0,0-8.175-8.175h-19.2a8.193,8.193,0,0,0-8.189,8.175V218.31H56.125v-45.8a8.185,8.185,0,0,0-8.175-8.175H28.732a8.185,8.185,0,0,0-8.175,8.175v45.8H7V58.621a3.5,3.5,0,1,0-7,0V221.807a3.5,3.5,0,0,0,3.5,3.5H220.58a3.5,3.5,0,1,0,0-7Zm-171.452,0H27.555v-45.8a1.2,1.2,0,0,1,1.177-1.182H47.95a1.179,1.179,0,0,1,1.177,1.182Zm49.131,0H76.682V142.857a1.2,1.2,0,0,1,1.19-1.177h19.2a1.2,1.2,0,0,1,1.182,1.177Zm49.14,0h-21.59v-45.8A1.191,1.191,0,0,1,127,171.327h19.2a1.187,1.187,0,0,1,1.19,1.182Zm49.127,0H174.954V142.857a1.192,1.192,0,0,1,1.177-1.177h19.2a1.2,1.2,0,0,1,1.19,1.177Zm-9.891-116.5-20.106-5.388a3.5,3.5,0,0,0-1.812,6.762l12.158,3.256-40.273,24.3-47.32-28.548a3.5,3.5,0,0,0-3.615,0L36.54,131.833a3.5,3.5,0,1,0,3.615,5.992l47.32-28.548L134.8,137.824a3.494,3.494,0,0,0,3.615,0l41.7-25.161L176.967,124.4a3.5,3.5,0,0,0,2.477,4.285,3.412,3.412,0,0,0,.906.118,3.5,3.5,0,0,0,3.379-2.591l5.383-20.11A3.5,3.5,0,0,0,186.635,101.814ZM113.6,44.616a3.592,3.592,0,0,0-.788-.092H111.9a4.318,4.318,0,1,1,0-8.635h1.812a4.254,4.254,0,0,1,3.458,1.768,3.5,3.5,0,1,0,5.633-4.153,11.361,11.361,0,0,0-7.27-4.455V25.394a3.5,3.5,0,0,0-6.994,0V29.4a11.31,11.31,0,0,0,1.943,22.027,3.522,3.522,0,0,0,.783.092h.906a4.324,4.324,0,0,1,0,8.648h-1.812a4.333,4.333,0,0,1-3.471-1.768,3.5,3.5,0,0,0-5.633,4.153,11.391,11.391,0,0,0,7.283,4.46v3.65a3.5,3.5,0,1,0,6.994,0V66.657a11.322,11.322,0,0,0-1.939-22.04Zm0,0a3.592,3.592,0,0,0-.788-.092H111.9a4.318,4.318,0,1,1,0-8.635h1.812a4.254,4.254,0,0,1,3.458,1.768,3.5,3.5,0,1,0,5.633-4.153,11.361,11.361,0,0,0-7.27-4.455V25.394a3.5,3.5,0,0,0-6.994,0V29.4a11.31,11.31,0,0,0,1.943,22.027,3.522,3.522,0,0,0,.783.092h.906a4.324,4.324,0,0,1,0,8.648h-1.812a4.333,4.333,0,0,1-3.471-1.768,3.5,3.5,0,0,0-5.633,4.153,11.391,11.391,0,0,0,7.283,4.46v3.65a3.5,3.5,0,1,0,6.994,0V66.657a11.322,11.322,0,0,0-1.939-22.04Zm0,0a3.592,3.592,0,0,0-.788-.092H111.9a4.318,4.318,0,1,1,0-8.635h1.812a4.254,4.254,0,0,1,3.458,1.768,3.5,3.5,0,1,0,5.633-4.153,11.361,11.361,0,0,0-7.27-4.455V25.394a3.5,3.5,0,0,0-6.994,0V29.4a11.31,11.31,0,0,0,1.943,22.027,3.522,3.522,0,0,0,.783.092h.906a4.324,4.324,0,0,1,0,8.648h-1.812a4.333,4.333,0,0,1-3.471-1.768,3.5,3.5,0,0,0-5.633,4.153,11.391,11.391,0,0,0,7.283,4.46v3.65a3.5,3.5,0,1,0,6.994,0V66.657a11.322,11.322,0,0,0-1.939-22.04Zm0,0a3.592,3.592,0,0,0-.788-.092H111.9a4.318,4.318,0,1,1,0-8.635h1.812a4.254,4.254,0,0,1,3.458,1.768,3.5,3.5,0,1,0,5.633-4.153,11.361,11.361,0,0,0-7.27-4.455V25.394a3.5,3.5,0,0,0-6.994,0V29.4a11.31,11.31,0,0,0,1.943,22.027,3.522,3.522,0,0,0,.783.092h.906a4.324,4.324,0,0,1,0,8.648h-1.812a4.333,4.333,0,0,1-3.471-1.768,3.5,3.5,0,0,0-5.633,4.153,11.391,11.391,0,0,0,7.283,4.46v3.65a3.5,3.5,0,1,0,6.994,0V66.657a11.322,11.322,0,0,0-1.939-22.04Zm25.454-23.6a38.188,38.188,0,1,0,0,54.038,38.238,38.238,0,0,0,0-54.038ZM134.107,70.1a31.2,31.2,0,1,1,0-44.142,31.244,31.244,0,0,1,0,44.142ZM113.6,44.616a3.593,3.593,0,0,0-.788-.092H111.9a4.318,4.318,0,1,1,0-8.635h1.812a4.254,4.254,0,0,1,3.458,1.768,3.5,3.5,0,1,0,5.633-4.153,11.36,11.36,0,0,0-7.27-4.455V25.394a3.5,3.5,0,0,0-6.994,0V29.4a11.31,11.31,0,0,0,1.943,22.027,3.522,3.522,0,0,0,.783.092h.906a4.324,4.324,0,0,1,0,8.648h-1.812a4.333,4.333,0,0,1-3.471-1.768,3.5,3.5,0,0,0-5.633,4.153,11.391,11.391,0,0,0,7.283,4.46v3.65a3.5,3.5,0,1,0,6.994,0V66.657a11.322,11.322,0,0,0-1.939-22.04Zm0,0a3.593,3.593,0,0,0-.788-.092H111.9a4.318,4.318,0,1,1,0-8.635h1.812a4.254,4.254,0,0,1,3.458,1.768,3.5,3.5,0,1,0,5.633-4.153,11.36,11.36,0,0,0-7.27-4.455V25.394a3.5,3.5,0,0,0-6.994,0V29.4a11.31,11.31,0,0,0,1.943,22.027,3.522,3.522,0,0,0,.783.092h.906a4.324,4.324,0,0,1,0,8.648h-1.812a4.333,4.333,0,0,1-3.471-1.768,3.5,3.5,0,0,0-5.633,4.153,11.391,11.391,0,0,0,7.283,4.46v3.65a3.5,3.5,0,1,0,6.994,0V66.657a11.322,11.322,0,0,0-1.939-22.04Zm0,0a3.593,3.593,0,0,0-.788-.092H111.9a4.318,4.318,0,1,1,0-8.635h1.812a4.254,4.254,0,0,1,3.458,1.768,3.5,3.5,0,1,0,5.633-4.153,11.36,11.36,0,0,0-7.27-4.455V25.394a3.5,3.5,0,0,0-6.994,0V29.4a11.31,11.31,0,0,0,1.943,22.027,3.522,3.522,0,0,0,.783.092h.906a4.324,4.324,0,0,1,0,8.648h-1.812a4.333,4.333,0,0,1-3.471-1.768,3.5,3.5,0,0,0-5.633,4.153,11.391,11.391,0,0,0,7.283,4.46v3.65a3.5,3.5,0,1,0,6.994,0V66.657a11.322,11.322,0,0,0-1.939-22.04Zm0,0a3.593,3.593,0,0,0-.788-.092H111.9a4.318,4.318,0,1,1,0-8.635h1.812a4.254,4.254,0,0,1,3.458,1.768,3.5,3.5,0,1,0,5.633-4.153,11.36,11.36,0,0,0-7.27-4.455V25.394a3.5,3.5,0,0,0-6.994,0V29.4a11.31,11.31,0,0,0,1.943,22.027,3.522,3.522,0,0,0,.783.092h.906a4.324,4.324,0,0,1,0,8.648h-1.812a4.333,4.333,0,0,1-3.471-1.768,3.5,3.5,0,0,0-5.633,4.153,11.391,11.391,0,0,0,7.283,4.46v3.65a3.5,3.5,0,1,0,6.994,0V66.657a11.322,11.322,0,0,0-1.939-22.04Zm0,0a3.593,3.593,0,0,0-.788-.092H111.9a4.318,4.318,0,1,1,0-8.635h1.812a4.254,4.254,0,0,1,3.458,1.768,3.5,3.5,0,1,0,5.633-4.153,11.36,11.36,0,0,0-7.27-4.455V25.394a3.5,3.5,0,0,0-6.994,0V29.4a11.31,11.31,0,0,0,1.943,22.027,3.522,3.522,0,0,0,.783.092h.906a4.324,4.324,0,0,1,0,8.648h-1.812a4.333,4.333,0,0,1-3.471-1.768,3.5,3.5,0,0,0-5.633,4.153,11.391,11.391,0,0,0,7.283,4.46v3.65a3.5,3.5,0,1,0,6.994,0V66.657a11.322,11.322,0,0,0-1.939-22.04Z" transform="translate(0 -9.84)" fill="#002e77"/>
      <path id="Path_688" data-name="Path 688" d="M231.931,312.257V387.71H210.359V312.257a1.192,1.192,0,0,1,1.177-1.177h19.2A1.2,1.2,0,0,1,231.931,312.257Zm-50.318,28.47h-19.2a1.191,1.191,0,0,0-1.195,1.182v45.8H182.8v-45.8A1.187,1.187,0,0,0,181.613,340.727ZM132.482,311.08h-19.2a1.2,1.2,0,0,0-1.19,1.177V387.71h21.577V312.257A1.2,1.2,0,0,0,132.482,311.08ZM83.355,340.727H64.137a1.2,1.2,0,0,0-1.177,1.182v45.8H84.532v-45.8A1.179,1.179,0,0,0,83.355,340.727Z" transform="translate(-35.405 -179.24)" fill="#ff1700"/>
    </g>
  </g>
</svg>
