<svg xmlns="http://www.w3.org/2000/svg" xmlns:xlink="http://www.w3.org/1999/xlink" width="247" height="216" viewBox="0 0 247 216">
  <defs>
    <clipPath id="clip-Artboard_1">
      <rect width="247" height="216"/>
    </clipPath>
  </defs>
  <g id="Artboard_1" data-name="Artboard – 1" clip-path="url(#clip-Artboard_1)">
    <rect width="247" height="216" fill="#fff"/>
    <g id="company" transform="translate(9.347 -13.422)">
      <g id="Group_1058" data-name="Group 1058" transform="translate(168.949 69.136)">
        <path id="Path_1122" data-name="Path 1122" d="M379.183,136.525l36,34.611V296.629h-36Z" transform="translate(-379.183 -136.525)" fill="#ff1700" fill-rule="evenodd"/>
      </g>
      <g id="Group_1059" data-name="Group 1059" transform="translate(121.554 15.324)">
        <path id="Path_1123" data-name="Path 1123" d="M272.638,15.552,305,61.8V229.468H272.638Z" transform="translate(-272.638 -15.552)" fill="#ff1700" fill-rule="evenodd"/>
      </g>
      <g id="Group_1060" data-name="Group 1060" transform="translate(74.6 69.136)">
        <path id="Path_1124" data-name="Path 1124" d="M167.081,136.525l36.008,34.611V296.629H167.081Z" transform="translate(-167.081 -136.525)" fill="#7f95e0" fill-rule="evenodd"/>
      </g>
      <g id="Group_1061" data-name="Group 1061" transform="translate(110.453 146.923)">
        <path id="Path_1125" data-name="Path 1125" d="M265.769,311.4a18.082,18.082,0,1,1-18.088,18.076A18.087,18.087,0,0,1,265.769,311.4Z" transform="translate(-247.681 -311.396)" fill="#fdb4ba" fill-rule="evenodd"/>
      </g>
      <g id="Group_1062" data-name="Group 1062" transform="translate(95.457 183.087)">
        <path id="Path_1126" data-name="Path 1126" d="M280.138,438.847V410.11a17.463,17.463,0,0,0-17.415-17.415H231.384a17.463,17.463,0,0,0-17.415,17.415v28.737Z" transform="translate(-213.969 -392.695)" fill="#05e39c" fill-rule="evenodd"/>
      </g>
      <g id="Group_1063" data-name="Group 1063" transform="translate(125.617 146.923)">
        <path id="Path_1127" data-name="Path 1127" d="M284.7,311.4a18.082,18.082,0,1,1-2.924,35.931,18.087,18.087,0,0,0,0-35.7A18.153,18.153,0,0,1,284.7,311.4Z" transform="translate(-281.771 -311.396)" fill="#fe99a0" fill-rule="evenodd"/>
      </g>
      <g id="Group_1064" data-name="Group 1064" transform="translate(141.454 183.087)">
        <path id="Path_1128" data-name="Path 1128" d="M337.545,438.847V410.11a17.463,17.463,0,0,0-17.415-17.415h-2.756a17.643,17.643,0,0,1,14.323,17.35v28.8Z" transform="translate(-317.373 -392.695)" fill="#0ed290" fill-rule="evenodd"/>
      </g>
      <g id="Group_1065" data-name="Group 1065" transform="translate(176.634 146.923)">
        <path id="Path_1129" data-name="Path 1129" d="M414.549,311.4a18.082,18.082,0,1,1-18.088,18.076A18.076,18.076,0,0,1,414.549,311.4Z" transform="translate(-396.461 -311.396)" fill="#fdb4ba" fill-rule="evenodd"/>
      </g>
      <g id="Group_1066" data-name="Group 1066" transform="translate(191.798 146.923)">
        <path id="Path_1130" data-name="Path 1130" d="M433.475,311.4a18.082,18.082,0,1,1-2.924,35.931,18.089,18.089,0,0,0,0-35.7A18.031,18.031,0,0,1,433.475,311.4Z" transform="translate(-430.551 -311.396)" fill="#fe99a0" fill-rule="evenodd"/>
      </g>
      <g id="Group_1067" data-name="Group 1067" transform="translate(75.761 70.696)">
        <path id="Path_1131" data-name="Path 1131" d="M169.691,140.032l34.951,33.6V295.436H169.691Z" transform="translate(-169.691 -140.032)" fill="#ff1700" fill-rule="evenodd"/>
      </g>
      <g id="Group_1068" data-name="Group 1068" transform="translate(110.561 146.2)">
        <path id="Path_1132" data-name="Path 1132" d="M265.482,309.77a17.551,17.551,0,1,1-17.557,17.545A17.556,17.556,0,0,1,265.482,309.77Z" transform="translate(-247.925 -309.77)" fill="#ff1700" fill-rule="evenodd"/>
      </g>
      <g id="Group_1069" data-name="Group 1069" transform="translate(96.005 181.302)">
        <path id="Path_1133" data-name="Path 1133" d="M279.428,433.479V405.585a16.951,16.951,0,0,0-16.9-16.9H232.106a16.951,16.951,0,0,0-16.9,16.9v27.893Z" transform="translate(-215.202 -388.681)" fill="#ff1700" fill-rule="evenodd"/>
      </g>
      <g id="Group_1070" data-name="Group 1070" transform="translate(174.8 146.2)">
        <path id="Path_1134" data-name="Path 1134" d="M409.9,309.77a17.551,17.551,0,1,1-17.557,17.545A17.546,17.546,0,0,1,409.9,309.77Z" transform="translate(-392.338 -309.77)" fill="#ff1700" fill-rule="evenodd"/>
      </g>
      <g id="Group_1071" data-name="Group 1071" transform="translate(160.232 181.302)">
        <path id="Path_1135" data-name="Path 1135" d="M423.826,433.479V405.585a16.959,16.959,0,0,0-16.9-16.9h-30.43a16.959,16.959,0,0,0-16.9,16.9v27.893Z" transform="translate(-359.587 -388.681)" fill="#ff1700" fill-rule="evenodd"/>
      </g>
      <path id="Path_1136" data-name="Path 1136" d="M14.608,127.762a3.109,3.109,0,0,1,3.108-3.108H61.587a3.108,3.108,0,0,1,0,6.217H17.716a3.108,3.108,0,0,1-3.108-3.108Zm3.108,19.091H61.587a3.108,3.108,0,0,0,0-6.217H17.716a3.108,3.108,0,0,0,0,6.217Zm0,15.983H61.587a3.108,3.108,0,0,0,0-6.217H17.716a3.108,3.108,0,0,0,0,6.217Zm0,15.97H61.587a3.108,3.108,0,0,0,0-6.217H17.716a3.108,3.108,0,0,0,0,6.217Zm0,15.983H61.587a3.108,3.108,0,1,0,0-6.217H17.716a3.108,3.108,0,1,0,0,6.217Zm0,15.983H61.587a3.108,3.108,0,0,0,0-6.217H17.716a3.108,3.108,0,0,0,0,6.217Zm210.091-12.408v27.951a3.109,3.109,0,0,1-3.108,3.108H3.608A3.108,3.108,0,0,1,.5,226.314V104.254a3.108,3.108,0,0,1,1.793-2.816L53.482,77.532v-14.3a3.109,3.109,0,0,1,1.336-2.553L119.591,15.7a3.109,3.109,0,0,1,4.32.771l31.475,44.978a3.107,3.107,0,0,1,.562,1.782v9.3l10.187-4.756a3.106,3.106,0,0,1,3.469.576l35.024,33.664a3.109,3.109,0,0,1,.955,2.241v43.541a20.653,20.653,0,0,1,1.709,30.521h.469A20.07,20.07,0,0,1,227.807,198.363ZM207,163.83a14.485,14.485,0,1,0-14.485,14.485A14.495,14.495,0,0,0,207,163.83ZM170.558,77.889V179.478a19.949,19.949,0,0,1,6.72-1.162h.469a20.686,20.686,0,0,1,21.617-34.007V105.577Zm-14.611,1.5V182.744a20.191,20.191,0,0,1,4.392,4.917,20.2,20.2,0,0,1,4-4.595V75.471ZM124.473,28.113V143.474a20.679,20.679,0,0,1,18.446,34.841h.481a19.958,19.958,0,0,1,6.33,1.03V64.207Zm3.675,150.2a14.479,14.479,0,1,0-14.472-14.485A14.5,14.5,0,0,0,128.148,178.315ZM72.586,75.472,6.717,106.233V223.205H72.586Zm5.262-7.123,35.023,33.664a3.109,3.109,0,0,1,.955,2.241V148.92a20.8,20.8,0,0,1,4.429-3.256V24.192L59.7,64.853v9.775l14.679-6.855a3.108,3.108,0,0,1,3.47.575ZM78.8,223.205H92.86V198.363a20.07,20.07,0,0,1,20.048-20.047h.478a20.583,20.583,0,0,1-5.768-17.012c0-.056-.008-.111-.008-.167V105.577L78.8,77.889Zm31.915,0h46.513V198.363A13.823,13.823,0,0,0,151.268,187a3.215,3.215,0,0,1-.315-.212,13.744,13.744,0,0,0-7.554-2.254H112.907a13.846,13.846,0,0,0-13.831,13.831v24.842Zm110.871-24.842a13.846,13.846,0,0,0-13.831-13.831h-30.48a13.752,13.752,0,0,0-7.979,2.544c-.049.037-.1.073-.151.107a13.819,13.819,0,0,0-5.7,11.179v24.842h58.142Z" transform="translate(0 0)" fill="#002e77"/>
    </g>
  </g>
</svg>
